<svg width="20" height="20" viewBox="0 0 20 20" fill="none" xmlns="http://www.w3.org/2000/svg">
<path d="M9.9 7.6165C10.9667 7.6665 11.2417 8.57484 11.2583 8.99984H12.75C12.6833 7.34984 11.5083 6.3415 9.875 6.3415C8.03333 6.3415 6.66666 7.49984 6.66666 10.1165C6.66666 11.7332 7.44166 13.6498 9.86666 13.6498C11.7167 13.6498 12.7083 12.2748 12.7333 11.1915H11.2417C11.2167 11.6832 10.8667 12.3415 9.88333 12.3915C8.79166 12.3582 8.33333 11.5082 8.33333 10.1165C8.33333 7.70817 9.4 7.63317 9.9 7.6165ZM10 1.6665C5.4 1.6665 1.66666 5.39984 1.66666 9.99984C1.66666 14.5998 5.4 18.3332 10 18.3332C14.6 18.3332 18.3333 14.5998 18.3333 9.99984C18.3333 5.39984 14.6 1.6665 10 1.6665ZM10 16.6665C6.325 16.6665 3.33333 13.6748 3.33333 9.99984C3.33333 6.32484 6.325 3.33317 10 3.33317C13.675 3.33317 16.6667 6.32484 16.6667 9.99984C16.6667 13.6748 13.675 16.6665 10 16.6665Z" fill="white"/>
</svg>
