<svg width="25" height="24" viewBox="0 0 25 24" fill="none" xmlns="http://www.w3.org/2000/svg">
<path d="M4.16669 20C3.61669 20 3.14602 19.8043 2.75469 19.413C2.36335 19.0217 2.16735 18.5507 2.16669 18V6C2.16669 5.45 2.36269 4.97933 2.75469 4.588C3.14669 4.19667 3.61735 4.00067 4.16669 4H20.1667C20.7167 4 21.1877 4.196 21.5797 4.588C21.9717 4.98 22.1674 5.45067 22.1667 6V18C22.1667 18.55 21.971 19.021 21.5797 19.413C21.1884 19.805 20.7174 20.0007 20.1667 20H4.16669ZM20.1667 8L12.6917 12.675C12.6084 12.725 12.521 12.7627 12.4297 12.788C12.3384 12.8133 12.2507 12.8257 12.1667 12.825C12.0827 12.8243 11.9954 12.812 11.9047 12.788C11.814 12.764 11.7264 12.7263 11.6417 12.675L4.16669 8V18H20.1667V8ZM12.1667 11L20.1667 6H4.16669L12.1667 11ZM4.16669 8.25V6.775V6.8V6.788V8.25Z" fill="#F59E0B"/>
</svg>
