<svg width="25" height="24" viewBox="0 0 25 24" fill="none" xmlns="http://www.w3.org/2000/svg">
<path d="M7.92068 18.494L8.64468 18.917C9.86556 19.6292 11.2542 20.003 12.6677 20C14.2499 20 15.7966 19.5308 17.1122 18.6518C18.4278 17.7727 19.4532 16.5233 20.0587 15.0615C20.6642 13.5997 20.8226 11.9911 20.514 10.4393C20.2053 8.88743 19.4434 7.46197 18.3245 6.34315C17.2057 5.22433 15.7803 4.4624 14.2284 4.15372C12.6766 3.84504 11.068 4.00346 9.60621 4.60896C8.1444 5.21447 6.89497 6.23984 6.01592 7.55544C5.13687 8.87103 4.66768 10.4177 4.66768 12C4.66476 13.4139 5.03895 14.8029 5.75168 16.024L6.17368 16.748L5.52068 19.149L7.92068 18.494ZM2.67168 22L4.02368 17.032C3.13264 15.5049 2.66458 13.768 2.66768 12C2.66768 6.477 7.14468 2 12.6677 2C18.1907 2 22.6677 6.477 22.6677 12C22.6677 17.523 18.1907 22 12.6677 22C10.9004 22.003 9.16426 21.5353 7.63768 20.645L2.67168 22ZM9.05868 7.308C9.19335 7.29867 9.32768 7.29733 9.46168 7.304C9.51568 7.308 9.56968 7.31333 9.62368 7.32C9.78268 7.338 9.95768 7.435 10.0167 7.569C10.3147 8.24567 10.604 8.92567 10.8847 9.609C10.9467 9.761 10.9097 9.956 10.7917 10.146C10.7317 10.243 10.6377 10.379 10.5287 10.518C10.4157 10.663 10.1727 10.929 10.1727 10.929C10.1727 10.929 10.0737 11.047 10.1117 11.194C10.1257 11.25 10.1717 11.331 10.2137 11.399L10.2727 11.494C10.5287 11.921 10.8727 12.354 11.2927 12.762C11.4127 12.878 11.5297 12.997 11.6557 13.108C12.1237 13.521 12.6537 13.858 13.2257 14.108L13.2307 14.11C13.3157 14.147 13.3587 14.167 13.4827 14.22C13.5447 14.246 13.6083 14.268 13.6737 14.286C13.6977 14.2927 13.722 14.2963 13.7467 14.297C13.8037 14.2992 13.8604 14.2874 13.9118 14.2626C13.9632 14.2379 14.0078 14.2009 14.0417 14.155C14.7647 13.279 14.8317 13.222 14.8367 13.222V13.224C14.8869 13.177 14.9466 13.1413 15.0119 13.1194C15.0771 13.0975 15.1463 13.0898 15.2147 13.097C15.276 13.0997 15.335 13.113 15.3917 13.137C15.9227 13.38 16.7917 13.759 16.7917 13.759L17.3737 14.02C17.4717 14.067 17.5607 14.178 17.5637 14.285C17.5677 14.352 17.5737 14.46 17.5507 14.658C17.5187 14.917 17.4407 15.228 17.3627 15.391C17.3086 15.5019 17.2378 15.6037 17.1527 15.693C17.0517 15.7989 16.9412 15.8953 16.8227 15.981C16.74 16.0423 16.6983 16.0723 16.6977 16.071C16.5733 16.1499 16.4455 16.2233 16.3147 16.291C16.0571 16.4275 15.7728 16.506 15.4817 16.521C15.2967 16.531 15.1117 16.545 14.9257 16.535C14.9177 16.535 14.3577 16.448 14.3577 16.448C12.936 16.074 11.6211 15.3734 10.5177 14.402C10.2917 14.203 10.0817 13.989 9.86768 13.776C8.97968 12.891 8.30668 11.936 7.89768 11.034C7.69018 10.5912 7.57777 10.1099 7.56768 9.621C7.56392 9.01375 7.76274 8.42257 8.13268 7.941C8.20568 7.847 8.27468 7.749 8.39368 7.636C8.51968 7.516 8.60068 7.452 8.68768 7.408C8.80372 7.351 8.92971 7.31704 9.05868 7.308Z" fill="#F59E0B"/>
</svg>
