<svg width="49" height="49" viewBox="0 0 49 49" fill="none" xmlns="http://www.w3.org/2000/svg">
<path d="M37.7206 11.0169C35.4575 7.1375 32.36 5 29 5H20C16.64 5 13.5425 7.1375 11.2794 11.0169C9.16438 14.6412 8 19.4375 8 24.5C8 29.5625 9.16438 34.3588 11.2794 37.9831C13.5425 41.8625 16.64 44 20 44H29C32.36 44 35.4575 41.8625 37.7206 37.9831C39.8356 34.3588 41 29.5625 41 24.5C41 19.4375 39.8356 14.6412 37.7206 11.0169ZM37.9606 23H31.9606C31.8434 19.9219 31.2306 16.8829 30.1456 14H35.8812C37.0287 16.5087 37.7862 19.625 37.9606 23ZM34.0981 11H28.7113C28.0847 9.91309 27.3293 8.90581 26.4613 8H29C30.875 8 32.6375 9.125 34.0981 11ZM29 41H26.4669C27.3349 40.0942 28.0903 39.0869 28.7169 38H34.1038C32.6375 39.875 30.875 41 29 41ZM35.8812 35H30.1475C31.2324 32.1171 31.8453 29.0781 31.9625 26H37.9625C37.7863 29.375 37.0287 32.4912 35.8812 35Z" fill="#F59E0B"/>
</svg>
